# xmcd
#
# Track frame offsets: 
#        150
#        18465
#        37771
#        56046
#        76155
#        92757
#        106266
#        123106
#        139734
#        155404
#        169949
#        187273
#        203339
#        218740
#        234107
#        250573
#        266243
#
# Disc length: 3766 seconds
#
# Revision: 1
# Processed by: cddbd v1.5.2PL0 Copyright (c) Steve Scherf et al.
# Submitted via: ExactAudioCopy v0.99pb5
#
DISCID=d70eb411
DTITLE=Münchener Freiheit - Alle Jahre, Alle Hits CD2
DYEAR=2010
DGENRE=Pop-Folk
TTITLE0=Komm Zurück
TTITLE1=Liebe Auf Den Ersten Blick
TTITLE2=Einfach Wahr
TTITLE3=Einmal Kommt Das Leben
TTITLE4=Tausend Augen
TTITLE5=Viel Zu Weit
TTITLE6=Du Bist Energie Für Mich
TTITLE7=Du Weisst Es, Ich Weiss Es
TTITLE8=Schenk Mir Eine Nacht
TTITLE9=Du Bist Da
TTITLE10=Komm Doch Zu Mir
TTITLE11=Liebe, Lust Und Leidenschaft 
TTITLE12=Dann Versinkt Die Welt In Schweigen
TTITLE13=Schuld War Wieder Die Nacht
TTITLE14=Du Bist Nicht Allein
TTITLE15=Solang
TTITLE16=Wachgeküsst
EXTD=
EXTT0=
EXTT1=
EXTT2=
EXTT3=
EXTT4=
EXTT5=
EXTT6=
EXTT7=
EXTT8=
EXTT9=
EXTT10=
EXTT11=
EXTT12=
EXTT13=
EXTT14=
EXTT15=
EXTT16=
PLAYORDER=
